{
  "accessors": [
    {
      "bufferView": 2,
      "componentType": 5126,
      "count": 4716,
      "max": [
        26.702199935913086,
        30.82979965209961,
        47.51530075073242
      ],
      "min": [
        0.0,
        0.0,
        0.0
      ],
      "type": "VEC3"
    },
    {
      "bufferView": 2,
      "byteOffset": 56592,
      "componentType": 5126,
      "count": 4716,
      "max": [
        0.9998927116394043,
        0.9897690415382385,
        0.9991247057914734
      ],
      "min": [
        -0.9998927116394043,
        -0.9998292326927185,
        -0.9991247057914734
      ],
      "type": "VEC3"
    },
    {
      "bufferView": 3,
      "componentType": 5126,
      "count": 4716,
      "max": [
        1.0,
        0.9999392628669739,
        0.9977337718009949,
        1.0
      ],
      "min": [
        -1.0,
        -0.9997430443763733,
        -0.999723494052887,
        -1.0
      ],
      "type": "VEC4"
    },
    {
      "bufferView": 1,
      "componentType": 5126,
      "count": 4716,
      "max": [
        0.9965999722480774,
        0.9984999895095825
      ],
      "min": [
        0.005100000184029341,
        0.003599999938160181
      ],
      "type": "VEC2"
    },
    {
      "bufferView": 0,
      "componentType": 5125,
      "count": 14022,
      "type": "SCALAR"
    },
    {
      "bufferView": 2,
      "byteOffset": 113184,
      "componentType": 5126,
      "count": 3756,
      "max": [
        26.661399841308594,
        30.049301147460938,
        48.819602966308594
      ],
      "min": [
        0.04080009460449219,
        0.0,
        0.2136993408203125
      ],
      "type": "VEC3"
    },
    {
      "bufferView": 2,
      "byteOffset": 158256,
      "componentType": 5126,
      "count": 3756,
      "max": [
        0.9999591112136841,
        0.9972593784332275,
        0.9991247057914734
      ],
      "min": [
        -0.9999591112136841,
        -0.9991007447242737,
        -0.9998561143875122
      ],
      "type": "VEC3"
    },
    {
      "bufferView": 3,
      "byteOffset": 75456,
      "componentType": 5126,
      "count": 3756,
      "max": [
        1.0,
        0.9996461868286133,
        0.9998506903648376,
        1.0
      ],
      "min": [
        -0.9996142983436584,
        -0.9998470544815063,
        -0.9996597766876221,
        -1.0
      ],
      "type": "VEC4"
    },
    {
      "bufferView": 1,
      "byteOffset": 37728,
      "componentType": 5126,
      "count": 3756,
      "max": [
        10.85990047454834,
        4.382500171661377
      ],
      "min": [
        0.0032999999821186066,
        0.010200000368058681
      ],
      "type": "VEC2"
    },
    {
      "bufferView": 0,
      "byteOffset": 56088,
      "componentType": 5125,
      "count": 14472,
      "type": "SCALAR"
    },
    {
      "bufferView": 2,
      "byteOffset": 203328,
      "componentType": 5126,
      "count": 2996,
      "max": [
        26.69659996032715,
        32.075897216796875,
        48.781097412109375
      ],
      "min": [
        0.0055999755859375,
        2.1745004653930664,
        0.2136993408203125
      ],
      "type": "VEC3"
    },
    {
      "bufferView": 2,
      "byteOffset": 239280,
      "componentType": 5126,
      "count": 2996,
      "max": [
        0.9984244704246521,
        0.9999808073043823,
        1.0
      ],
      "min": [
        -0.9984244704246521,
        -0.9989909529685974,
        -0.9991247057914734
      ],
      "type": "VEC3"
    },
    {
      "bufferView": 3,
      "byteOffset": 135552,
      "componentType": 5126,
      "count": 2996,
      "max": [
        0.9998222589492798,
        0.9993873238563538,
        0.9994598031044006,
        1.0
      ],
      "min": [
        -0.9999994039535522,
        -0.9995539784431458,
        -0.9999295473098755,
        -1.0
      ],
      "type": "VEC4"
    },
    {
      "bufferView": 1,
      "byteOffset": 67776,
      "componentType": 5126,
      "count": 2996,
      "max": [
        0.9993000030517578,
        1.000100016593933
      ],
      "min": [
        0.004600000102072954,
        0.00419999985024333
      ],
      "type": "VEC2"
    },
    {
      "bufferView": 0,
      "byteOffset": 113976,
      "componentType": 5125,
      "count": 10728,
      "type": "SCALAR"
    },
    {
      "bufferView": 2,
      "byteOffset": 275232,
      "componentType": 5126,
      "count": 3327,
      "max": [
        25.200698852539063,
        31.369600296020508,
        48.819602966308594
      ],
      "min": [
        1.501500129699707,
        3.5958995819091797,
        0.7336997985839844
      ],
      "type": "VEC3"
    },
    {
      "bufferView": 2,
      "byteOffset": 315156,
      "componentType": 5126,
      "count": 3327,
      "max": [
        0.9995304942131042,
        0.9994487762451172,
        0.9991247057914734
      ],
      "min": [
        -0.9995304942131042,
        -0.9993674755096436,
        -0.9991247057914734
      ],
      "type": "VEC3"
    },
    {
      "bufferView": 3,
      "byteOffset": 183488,
      "componentType": 5126,
      "count": 3327,
      "max": [
        1.0,
        0.9971990585327148,
        0.9999303817749023,
        1.0
      ],
      "min": [
        -0.9999996423721313,
        -0.9975239634513855,
        -0.9997232556343079,
        -1.0
      ],
      "type": "VEC4"
    },
    {
      "bufferView": 1,
      "byteOffset": 91744,
      "componentType": 5126,
      "count": 3327,
      "max": [
        0.9976999759674072,
        0.9976000189781189
      ],
      "min": [
        0.003800000064074993,
        0.003800000064074993
      ],
      "type": "VEC2"
    },
    {
      "bufferView": 0,
      "byteOffset": 156888,
      "componentType": 5125,
      "count": 14202,
      "type": "SCALAR"
    },
    {
      "bufferView": 2,
      "byteOffset": 355080,
      "componentType": 5126,
      "count": 1393,
      "max": [
        24.712900161743164,
        30.727800369262695,
        47.51530075073242
      ],
      "min": [
        1.9892997741699219,
        2.1745004653930664,
        6.398799896240234
      ],
      "type": "VEC3"
    },
    {
      "bufferView": 2,
      "byteOffset": 371796,
      "componentType": 5126,
      "count": 1393,
      "max": [
        0.9997983574867249,
        0.9999734163284302,
        0.9930663704872131
      ],
      "min": [
        -0.9997983574867249,
        -0.9982426166534424,
        -0.9963018894195557
      ],
      "type": "VEC3"
    },
    {
      "bufferView": 3,
      "byteOffset": 236720,
      "componentType": 5126,
      "count": 1393,
      "max": [
        0.9991917014122009,
        0.9982995390892029,
        0.9996984004974365,
        1.0
      ],
      "min": [
        -0.999906599521637,
        -0.9998174905776978,
        -0.9994580149650574,
        -1.0
      ],
      "type": "VEC4"
    },
    {
      "bufferView": 1,
      "byteOffset": 118360,
      "componentType": 5126,
      "count": 1393,
      "max": [
        0.9959999918937683,
        0.9911999702453613
      ],
      "min": [
        0.0026000000070780516,
        0.010599999688565731
      ],
      "type": "VEC2"
    },
    {
      "bufferView": 0,
      "byteOffset": 213696,
      "componentType": 5125,
      "count": 4692,
      "type": "SCALAR"
    }
  ],
  "asset": {
    "extras": {
      "author": "cenobyte (https://sketchfab.com/cenobyte)",
      "license": "CC-BY-4.0 (http://creativecommons.org/licenses/by/4.0/)",
      "source": "https://sketchfab.com/3d-models/sci-fi-helmet-57c4e5784952425bbe95e5975bbff694",
      "title": "Sci Fi Helmet"
    },
    "generator": "Sketchfab-12.65.0",
    "version": "2.0"
  },
  "bufferViews": [
    {
      "buffer": 0,
      "byteLength": 232464,
      "name": "floatBufferViews",
      "target": 34963
    },
    {
      "buffer": 0,
      "byteLength": 129504,
      "byteOffset": 232464,
      "byteStride": 8,
      "name": "floatBufferViews",
      "target": 34962
    },
    {
      "buffer": 0,
      "byteLength": 388512,
      "byteOffset": 361968,
      "byteStride": 12,
      "name": "floatBufferViews",
      "target": 34962
    },
    {
      "buffer": 0,
      "byteLength": 259008,
      "byteOffset": 750480,
      "byteStride": 16,
      "name": "floatBufferViews",
      "target": 34962
    }
  ],
  "buffers": [
    {
      "byteLength": 1009488,
      "uri": "scene.bin"
    }
  ],
  "images": [
    {
      "uri": "textures/material_0_baseColor.png"
    },
    {
      "uri": "textures/material_0_metallicRoughness.png"
    },
    {
      "uri": "textures/material_0_emissive.png"
    },
    {
      "uri": "textures/material_0_normal.png"
    }
  ],
  "materials": [
    {
      "alphaMode": "BLEND",
      "doubleSided": true,
      "emissiveFactor": [
        0.20007621951219515,
        0.20007621951219515,
        0.20007621951219515
      ],
      "emissiveTexture": {
        "index": 2
      },
      "name": "material_0",
      "normalTexture": {
        "index": 3
      },
      "occlusionTexture": {
        "index": 1
      },
      "pbrMetallicRoughness": {
        "baseColorTexture": {
          "index": 0
        },
        "metallicRoughnessTexture": {
          "index": 1
        }
      }
    }
  ],
  "meshes": [
    {
      "name": "Object_0",
      "primitives": [
        {
          "attributes": {
            "NORMAL": 1,
            "POSITION": 0,
            "TANGENT": 2,
            "TEXCOORD_0": 3
          },
          "indices": 4,
          "material": 0,
          "mode": 4
        }
      ]
    },
    {
      "name": "Object_1",
      "primitives": [
        {
          "attributes": {
            "NORMAL": 6,
            "POSITION": 5,
            "TANGENT": 7,
            "TEXCOORD_0": 8
          },
          "indices": 9,
          "material": 0,
          "mode": 4
        }
      ]
    },
    {
      "name": "Object_2",
      "primitives": [
        {
          "attributes": {
            "NORMAL": 11,
            "POSITION": 10,
            "TANGENT": 12,
            "TEXCOORD_0": 13
          },
          "indices": 14,
          "material": 0,
          "mode": 4
        }
      ]
    },
    {
      "name": "Object_3",
      "primitives": [
        {
          "attributes": {
            "NORMAL": 16,
            "POSITION": 15,
            "TANGENT": 17,
            "TEXCOORD_0": 18
          },
          "indices": 19,
          "material": 0,
          "mode": 4
        }
      ]
    },
    {
      "name": "Object_4",
      "primitives": [
        {
          "attributes": {
            "NORMAL": 21,
            "POSITION": 20,
            "TANGENT": 22,
            "TEXCOORD_0": 23
          },
          "indices": 24,
          "material": 0,
          "mode": 4
        }
      ]
    }
  ],
  "nodes": [
    {
      "children": [
        1
      ],
      "matrix": [
        0.010532859712839127,
        0.0,
        0.0,
        0.0,
        0.0,
        2.3387646736681426e-18,
        -0.010532859712839127,
        0.0,
        0.0,
        0.010532859712839127,
        2.3387646736681426e-18,
        0.0,
        0.0,
        0.0,
        0.0,
        1.0
      ],
      "name": "Sketchfab_model"
    },
    {
      "children": [
        2
      ],
      "matrix": [
        1.0,
        0.0,
        0.0,
        0.0,
        0.0,
        1.0,
        0.0,
        0.0,
        0.0,
        0.0,
        1.0,
        0.0,
        -13.351099967956543,
        -16.052000045776367,
        -24.4552001953125,
        1.0
      ],
      "name": "Helmet_02.obj.cleaner.gles"
    },
    {
      "children": [
        3,
        4,
        5,
        6,
        7
      ],
      "name": "Object_2"
    },
    {
      "mesh": 0,
      "name": "Object_3"
    },
    {
      "mesh": 1,
      "name": "Object_4"
    },
    {
      "mesh": 2,
      "name": "Object_5"
    },
    {
      "mesh": 3,
      "name": "Object_6"
    },
    {
      "mesh": 4,
      "name": "Object_7"
    }
  ],
  "samplers": [
    {
      "magFilter": 9729,
      "minFilter": 9987,
      "wrapS": 10497,
      "wrapT": 10497
    }
  ],
  "scene": 0,
  "scenes": [
    {
      "name": "Sketchfab_Scene",
      "nodes": [
        0
      ]
    }
  ],
  "textures": [
    {
      "sampler": 0,
      "source": 0
    },
    {
      "sampler": 0,
      "source": 1
    },
    {
      "sampler": 0,
      "source": 2
    },
    {
      "sampler": 0,
      "source": 3
    }
  ]
}
