{
  "accessors": [
    {
      "bufferView": 2,
      "componentType": 5126,
      "count": 3954,
      "max": [
        -0.8353483080863953,
        9.030177116394043,
        20.23831558227539
      ],
      "min": [
        -48.6783332824707,
        -31.3266658782959,
        18.44622802734375
      ],
      "type": "VEC3"
    },
    {
      "bufferView": 2,
      "byteOffset": 47448,
      "componentType": 5126,
      "count": 3954,
      "max": [
        0.9993017911911011,
        0.9953269958496094,
        0.9999882578849792
      ],
      "min": [
        -0.9983707070350647,
        -0.9968767166137695,
        -0.9997730255126953
      ],
      "type": "VEC3"
    },
    {
      "bufferView": 1,
      "componentType": 5126,
      "count": 3954,
      "max": [
        1.0,
        1.0
      ],
      "min": [
        0.0,
        0.0
      ],
      "type": "VEC2"
    },
    {
      "bufferView": 0,
      "componentType": 5125,
      "count": 18456,
      "type": "SCALAR"
    },
    {
      "bufferView": 2,
      "byteOffset": 94896,
      "componentType": 5126,
      "count": 23092,
      "max": [
        -13.65153694152832,
        8.495241165161133,
        28.1823673248291
      ],
      "min": [
        -22.03113555908203,
        6.21921443939209,
        24.112823486328125
      ],
      "type": "VEC3"
    },
    {
      "bufferView": 2,
      "byteOffset": 372000,
      "componentType": 5126,
      "count": 23092,
      "max": [
        0.9999664425849915,
        0.9999215006828308,
        0.9998725056648254
      ],
      "min": [
        -0.9992966651916504,
        -0.9997984766960144,
        -0.9993869066238403
      ],
      "type": "VEC3"
    },
    {
      "bufferView": 1,
      "byteOffset": 31632,
      "componentType": 5126,
      "count": 23092,
      "max": [
        1.0,
        1.0
      ],
      "min": [
        0.0,
        0.0
      ],
      "type": "VEC2"
    },
    {
      "bufferView": 0,
      "byteOffset": 73824,
      "componentType": 5125,
      "count": 119808,
      "type": "SCALAR"
    },
    {
      "bufferView": 2,
      "byteOffset": 649104,
      "componentType": 5126,
      "count": 6962,
      "max": [
        -13.502811431884766,
        9.847860336303711,
        21.768352508544922
      ],
      "min": [
        -21.658523559570313,
        6.689308166503906,
        18.555906295776367
      ],
      "type": "VEC3"
    },
    {
      "bufferView": 2,
      "byteOffset": 732648,
      "componentType": 5126,
      "count": 6962,
      "max": [
        0.9999725222587585,
        0.9998666644096375,
        0.997787356376648
      ],
      "min": [
        -0.9997737407684326,
        -0.9995311498641968,
        -0.9994456768035889
      ],
      "type": "VEC3"
    },
    {
      "bufferView": 1,
      "byteOffset": 216368,
      "componentType": 5126,
      "count": 6962,
      "max": [
        1.0,
        1.0
      ],
      "min": [
        0.0,
        0.0
      ],
      "type": "VEC2"
    },
    {
      "bufferView": 0,
      "byteOffset": 553056,
      "componentType": 5125,
      "count": 33792,
      "type": "SCALAR"
    },
    {
      "bufferView": 2,
      "byteOffset": 816192,
      "componentType": 5126,
      "count": 8368,
      "max": [
        5.860931873321533,
        12.568264961242676,
        25.159805297851563
      ],
      "min": [
        -49.67075729370117,
        -37.66508865356445,
        12.508219718933105
      ],
      "type": "VEC3"
    },
    {
      "bufferView": 2,
      "byteOffset": 916608,
      "componentType": 5126,
      "count": 8368,
      "max": [
        0.9995907545089722,
        0.999944269657135,
        0.9999068379402161
      ],
      "min": [
        -0.9997282028198242,
        -0.9987238049507141,
        -0.9872670769691467
      ],
      "type": "VEC3"
    },
    {
      "bufferView": 1,
      "byteOffset": 272064,
      "componentType": 5126,
      "count": 8368,
      "max": [
        1.0,
        1.0
      ],
      "min": [
        0.0,
        0.0
      ],
      "type": "VEC2"
    },
    {
      "bufferView": 0,
      "byteOffset": 688224,
      "componentType": 5125,
      "count": 35808,
      "type": "SCALAR"
    },
    {
      "bufferView": 2,
      "byteOffset": 1017024,
      "componentType": 5126,
      "count": 3258,
      "max": [
        -0.9116486310958862,
        -21.418840408325195,
        19.296499252319336
      ],
      "min": [
        -50.07282257080078,
        -38.38036346435547,
        12.182931900024414
      ],
      "type": "VEC3"
    },
    {
      "bufferView": 2,
      "byteOffset": 1056120,
      "componentType": 5126,
      "count": 3258,
      "max": [
        0.9983859062194824,
        0.9866521954536438,
        0.9844824075698853
      ],
      "min": [
        -0.9980194568634033,
        -0.9909630417823792,
        -0.9998780488967896
      ],
      "type": "VEC3"
    },
    {
      "bufferView": 1,
      "byteOffset": 339008,
      "componentType": 5126,
      "count": 3258,
      "max": [
        1.0,
        1.0
      ],
      "min": [
        0.0,
        0.0
      ],
      "type": "VEC2"
    },
    {
      "bufferView": 0,
      "byteOffset": 831456,
      "componentType": 5125,
      "count": 13440,
      "type": "SCALAR"
    },
    {
      "bufferView": 2,
      "byteOffset": 1095216,
      "componentType": 5126,
      "count": 8744,
      "max": [
        4.452131271362305,
        13.244783401489258,
        29.664133071899414
      ],
      "min": [
        -39.84865188598633,
        2.6598429679870605,
        12.336311340332031
      ],
      "type": "VEC3"
    },
    {
      "bufferView": 2,
      "byteOffset": 1200144,
      "componentType": 5126,
      "count": 8744,
      "max": [
        0.9999439716339111,
        0.9984909296035767,
        0.9998300671577454
      ],
      "min": [
        -0.9995092153549194,
        -0.9991459250450134,
        -0.9996258020401001
      ],
      "type": "VEC3"
    },
    {
      "bufferView": 1,
      "byteOffset": 365072,
      "componentType": 5126,
      "count": 8744,
      "max": [
        1.0,
        1.0
      ],
      "min": [
        0.0,
        0.0
      ],
      "type": "VEC2"
    },
    {
      "bufferView": 0,
      "byteOffset": 885216,
      "componentType": 5125,
      "count": 39936,
      "type": "SCALAR"
    },
    {
      "bufferView": 2,
      "byteOffset": 1305072,
      "componentType": 5126,
      "count": 15816,
      "max": [
        5.866060733795166,
        12.74683952331543,
        25.519474029541016
      ],
      "min": [
        -41.59335708618164,
        1.6814074516296387,
        24.3212833404541
      ],
      "type": "VEC3"
    },
    {
      "bufferView": 2,
      "byteOffset": 1494864,
      "componentType": 5126,
      "count": 15816,
      "max": [
        0.9997594356536865,
        0.9964173436164856,
        0.9998853206634521
      ],
      "min": [
        -0.9998005628585815,
        -0.9997721314430237,
        -0.9985503554344177
      ],
      "type": "VEC3"
    },
    {
      "bufferView": 1,
      "byteOffset": 435024,
      "componentType": 5126,
      "count": 15816,
      "max": [
        1.0,
        1.0
      ],
      "min": [
        0.0,
        0.0
      ],
      "type": "VEC2"
    },
    {
      "bufferView": 0,
      "byteOffset": 1044960,
      "componentType": 5125,
      "count": 80352,
      "type": "SCALAR"
    },
    {
      "bufferView": 2,
      "byteOffset": 1684656,
      "componentType": 5126,
      "count": 5520,
      "max": [
        -13.591191291809082,
        9.030177116394043,
        21.481494903564453
      ],
      "min": [
        -21.78175926208496,
        6.7848968505859375,
        20.10463523864746
      ],
      "type": "VEC3"
    },
    {
      "bufferView": 2,
      "byteOffset": 1750896,
      "componentType": 5126,
      "count": 5520,
      "max": [
        0.9999421238899231,
        0.9998836517333984,
        0.999398410320282
      ],
      "min": [
        -0.9999425411224365,
        -0.9998838901519775,
        -0.9993959069252014
      ],
      "type": "VEC3"
    },
    {
      "bufferView": 1,
      "byteOffset": 561552,
      "componentType": 5126,
      "count": 5520,
      "max": [
        1.0,
        1.0
      ],
      "min": [
        0.0,
        0.0
      ],
      "type": "VEC2"
    },
    {
      "bufferView": 0,
      "byteOffset": 1366368,
      "componentType": 5125,
      "count": 31824,
      "type": "SCALAR"
    },
    {
      "bufferView": 2,
      "byteOffset": 1817136,
      "componentType": 5126,
      "count": 65532,
      "max": [
        4.742484092712402,
        8.017256736755371,
        30.016368865966797
      ],
      "min": [
        -14.294244766235352,
        2.480107307434082,
        12.224862098693848
      ],
      "type": "VEC3"
    },
    {
      "bufferView": 2,
      "byteOffset": 2603520,
      "componentType": 5126,
      "count": 65532,
      "max": [
        0.9999371767044067,
        0.9999784231185913,
        0.9999388456344604
      ],
      "min": [
        -0.9999017119407654,
        -0.9999786615371704,
        -0.9999399185180664
      ],
      "type": "VEC3"
    },
    {
      "bufferView": 1,
      "byteOffset": 605712,
      "componentType": 5126,
      "count": 65532,
      "max": [
        1.0,
        1.0
      ],
      "min": [
        0.0,
        0.0
      ],
      "type": "VEC2"
    },
    {
      "bufferView": 0,
      "byteOffset": 1493664,
      "componentType": 5125,
      "count": 310293,
      "type": "SCALAR"
    },
    {
      "bufferView": 2,
      "byteOffset": 3389904,
      "componentType": 5126,
      "count": 65532,
      "max": [
        0.530308723449707,
        13.450806617736816,
        30.016368865966797
      ],
      "min": [
        -40.15224075317383,
        2.6320409774780273,
        12.224862098693848
      ],
      "type": "VEC3"
    },
    {
      "bufferView": 2,
      "byteOffset": 4176288,
      "componentType": 5126,
      "count": 65532,
      "max": [
        0.9997050166130066,
        0.9999995231628418,
        0.9999387860298157
      ],
      "min": [
        -0.999798595905304,
        -0.9999992847442627,
        -0.9999399185180664
      ],
      "type": "VEC3"
    },
    {
      "bufferView": 1,
      "byteOffset": 1129968,
      "componentType": 5126,
      "count": 65532,
      "max": [
        1.0,
        1.0
      ],
      "min": [
        0.0,
        0.0
      ],
      "type": "VEC2"
    },
    {
      "bufferView": 0,
      "byteOffset": 2734836,
      "componentType": 5125,
      "count": 307005,
      "type": "SCALAR"
    },
    {
      "bufferView": 2,
      "byteOffset": 4962672,
      "componentType": 5126,
      "count": 12392,
      "max": [
        -5.188592910766602,
        12.660873413085938,
        29.92372703552246
      ],
      "min": [
        -30.76542091369629,
        3.6088805198669434,
        12.253429412841797
      ],
      "type": "VEC3"
    },
    {
      "bufferView": 2,
      "byteOffset": 5111376,
      "componentType": 5126,
      "count": 12392,
      "max": [
        0.9998423457145691,
        0.9979585409164429,
        0.9999387860298157
      ],
      "min": [
        -0.999685525894165,
        -0.9964132308959961,
        -0.9867322444915771
      ],
      "type": "VEC3"
    },
    {
      "bufferView": 1,
      "byteOffset": 1654224,
      "componentType": 5126,
      "count": 12392,
      "max": [
        1.0,
        1.0
      ],
      "min": [
        0.0009374999790452421,
        0.0
      ],
      "type": "VEC2"
    },
    {
      "bufferView": 0,
      "byteOffset": 3962856,
      "componentType": 5125,
      "count": 46254,
      "type": "SCALAR"
    }
  ],
  "asset": {
    "extras": {
      "author": "MVPberlin (https://sketchfab.com/MVPberlin)",
      "license": "CC-BY-4.0 (http://creativecommons.org/licenses/by/4.0/)",
      "source": "https://sketchfab.com/3d-models/hipster-glasses-eyewear-spectacles-680d580873354071972160a3a9ee6659",
      "title": "Hipster glasses eyewear spectacles"
    },
    "generator": "Sketchfab-12.67.0",
    "version": "2.0"
  },
  "bufferViews": [
    {
      "buffer": 0,
      "byteLength": 4147872,
      "name": "floatBufferViews",
      "target": 34963
    },
    {
      "buffer": 0,
      "byteLength": 1753360,
      "byteOffset": 4147872,
      "byteStride": 8,
      "name": "floatBufferViews",
      "target": 34962
    },
    {
      "buffer": 0,
      "byteLength": 5260080,
      "byteOffset": 5901232,
      "byteStride": 12,
      "name": "floatBufferViews",
      "target": 34962
    }
  ],
  "buffers": [
    {
      "byteLength": 11161312,
      "uri": "scene.bin"
    }
  ],
  "materials": [
    {
      "doubleSided": true,
      "name": "default",
      "pbrMetallicRoughness": {
        "baseColorFactor": [
          0.5190936914907921,
          0.5190936914907921,
          0.5190936914907921,
          1.0
        ],
        "metallicFactor": 0.7545913520160318,
        "roughnessFactor": 0.4
      }
    }
  ],
  "meshes": [
    {
      "name": "Object_0",
      "primitives": [
        {
          "attributes": {
            "NORMAL": 1,
            "POSITION": 0,
            "TEXCOORD_0": 2
          },
          "indices": 3,
          "material": 0,
          "mode": 4
        }
      ]
    },
    {
      "name": "Object_1",
      "primitives": [
        {
          "attributes": {
            "NORMAL": 5,
            "POSITION": 4,
            "TEXCOORD_0": 6
          },
          "indices": 7,
          "material": 0,
          "mode": 4
        }
      ]
    },
    {
      "name": "Object_2",
      "primitives": [
        {
          "attributes": {
            "NORMAL": 9,
            "POSITION": 8,
            "TEXCOORD_0": 10
          },
          "indices": 11,
          "material": 0,
          "mode": 4
        }
      ]
    },
    {
      "name": "Object_3",
      "primitives": [
        {
          "attributes": {
            "NORMAL": 13,
            "POSITION": 12,
            "TEXCOORD_0": 14
          },
          "indices": 15,
          "material": 0,
          "mode": 4
        }
      ]
    },
    {
      "name": "Object_4",
      "primitives": [
        {
          "attributes": {
            "NORMAL": 17,
            "POSITION": 16,
            "TEXCOORD_0": 18
          },
          "indices": 19,
          "material": 0,
          "mode": 4
        }
      ]
    },
    {
      "name": "Object_5",
      "primitives": [
        {
          "attributes": {
            "NORMAL": 21,
            "POSITION": 20,
            "TEXCOORD_0": 22
          },
          "indices": 23,
          "material": 0,
          "mode": 4
        }
      ]
    },
    {
      "name": "Object_6",
      "primitives": [
        {
          "attributes": {
            "NORMAL": 25,
            "POSITION": 24,
            "TEXCOORD_0": 26
          },
          "indices": 27,
          "material": 0,
          "mode": 4
        }
      ]
    },
    {
      "name": "Object_7",
      "primitives": [
        {
          "attributes": {
            "NORMAL": 29,
            "POSITION": 28,
            "TEXCOORD_0": 30
          },
          "indices": 31,
          "material": 0,
          "mode": 4
        }
      ]
    },
    {
      "name": "Object_8",
      "primitives": [
        {
          "attributes": {
            "NORMAL": 33,
            "POSITION": 32,
            "TEXCOORD_0": 34
          },
          "indices": 35,
          "material": 0,
          "mode": 4
        }
      ]
    },
    {
      "name": "Object_9",
      "primitives": [
        {
          "attributes": {
            "NORMAL": 37,
            "POSITION": 36,
            "TEXCOORD_0": 38
          },
          "indices": 39,
          "material": 0,
          "mode": 4
        }
      ]
    },
    {
      "name": "Object_10",
      "primitives": [
        {
          "attributes": {
            "NORMAL": 41,
            "POSITION": 40,
            "TEXCOORD_0": 42
          },
          "indices": 43,
          "material": 0,
          "mode": 4
        }
      ]
    }
  ],
  "nodes": [
    {
      "children": [
        1
      ],
      "matrix": [
        1.0,
        0.0,
        0.0,
        0.0,
        0.0,
        2.220446049250313e-16,
        -1.0,
        0.0,
        0.0,
        1.0,
        2.220446049250313e-16,
        0.0,
        0.0,
        0.0,
        0.0,
        1.0
      ],
      "name": "Sketchfab_model"
    },
    {
      "children": [
        2,
        3,
        4,
        5,
        6,
        7,
        8,
        9,
        10,
        11,
        12
      ],
      "name": "glasses.obj.cleaner.materialmerger.gles"
    },
    {
      "mesh": 0,
      "name": "Object_2"
    },
    {
      "mesh": 1,
      "name": "Object_3"
    },
    {
      "mesh": 2,
      "name": "Object_4"
    },
    {
      "mesh": 3,
      "name": "Object_5"
    },
    {
      "mesh": 4,
      "name": "Object_6"
    },
    {
      "mesh": 5,
      "name": "Object_7"
    },
    {
      "mesh": 6,
      "name": "Object_8"
    },
    {
      "mesh": 7,
      "name": "Object_9"
    },
    {
      "mesh": 8,
      "name": "Object_10"
    },
    {
      "mesh": 9,
      "name": "Object_11"
    },
    {
      "mesh": 10,
      "name": "Object_12"
    }
  ],
  "scene": 0,
  "scenes": [
    {
      "name": "Sketchfab_Scene",
      "nodes": [
        0
      ]
    }
  ]
}
