<?xml version="1.0" standalone="no"?><svg xmlns="http://www.w3.org/2000/svg" viewBox="0 0 1440 320"><path fill="#0099ff" fill-opacity="1" d="M0,192L10.9,186.7C21.8,181,44,171,65,176C87.3,181,109,203,131,181.3C152.7,160,175,96,196,58.7C218.2,21,240,11,262,5.3C283.6,0,305,0,327,32C349.1,64,371,128,393,138.7C414.5,149,436,107,458,101.3C480,96,502,128,524,133.3C545.5,139,567,117,589,122.7C610.9,128,633,160,655,170.7C676.4,181,698,171,720,154.7C741.8,139,764,117,785,138.7C807.3,160,829,224,851,208C872.7,192,895,96,916,58.7C938.2,21,960,43,982,74.7C1003.6,107,1025,149,1047,165.3C1069.1,181,1091,171,1113,154.7C1134.5,139,1156,117,1178,90.7C1200,64,1222,32,1244,48C1265.5,64,1287,128,1309,170.7C1330.9,213,1353,235,1375,240C1396.4,245,1418,235,1429,229.3L1440,224L1440,320L1429.1,320C1418.2,320,1396,320,1375,320C1352.7,320,1331,320,1309,320C1287.3,320,1265,320,1244,320C1221.8,320,1200,320,1178,320C1156.4,320,1135,320,1113,320C1090.9,320,1069,320,1047,320C1025.5,320,1004,320,982,320C960,320,938,320,916,320C894.5,320,873,320,851,320C829.1,320,807,320,785,320C763.6,320,742,320,720,320C698.2,320,676,320,655,320C632.7,320,611,320,589,320C567.3,320,545,320,524,320C501.8,320,480,320,458,320C436.4,320,415,320,393,320C370.9,320,349,320,327,320C305.5,320,284,320,262,320C240,320,218,320,196,320C174.5,320,153,320,131,320C109.1,320,87,320,65,320C43.6,320,22,320,11,320L0,320Z" data-darkreader-inline-fill="" style="--darkreader-inline-fill:#007acc;"></path></svg>